<svg xmlns="http://www.w3.org/2000/svg" width="18" height="18" fill="none" viewBox="0 0 18 18"><path fill="currentColor" d="M9 0C4.027 0 0 4.089 0 9.137 0 13.431 2.902 16.995 6.818 18a1.25 1.25 0 0 1-.068-.434v-1.554H5.625c-.607 0-1.17-.273-1.418-.776-.292-.549-.337-1.394-1.08-1.92-.225-.182-.045-.365.203-.343.472.137.854.458 1.214.937.36.48.518.594 1.193.594.315 0 .81-.023 1.26-.092.247-.64.675-1.21 1.193-1.485-3.015-.365-4.455-1.873-4.455-3.929 0-.891.382-1.736 1.012-2.467-.202-.709-.472-2.17.09-2.742 1.351 0 2.16.892 2.363 1.12a6.835 6.835 0 0 1 2.182-.366c.788 0 1.508.137 2.182.365.203-.228 1.013-1.119 2.363-1.119.54.549.292 2.033.067 2.742.63.708.99 1.576.99 2.467 0 2.056-1.417 3.564-4.41 3.884.833.433 1.419 1.667 1.419 2.58v2.082c0 .068-.023.136-.023.205C15.48 16.516 18 13.135 18 9.137 18 4.09 13.973 0 9 0z"></path></svg>